<svg height="480pt" viewBox="-31 0 479 480" width="480pt" xmlns="http://www.w3.org/2000/svg" xmlns:xlink="http://www.w3.org/1999/xlink"><linearGradient id="a" gradientUnits="userSpaceOnUse" x1="208.5" x2="208.5" y1="-24" y2="520.528"><stop offset="0" stop-color="#006df0"/><stop offset="1" stop-color="#00e7f0"/></linearGradient><path d="m408.5 0h-400c-4.417969 0-8 3.582031-8 8v464c0 4.417969 3.582031 8 8 8h400c4.417969 0 8-3.582031 8-8v-464c0-4.417969-3.582031-8-8-8zm-392 248h64v64h-64zm0-80h64v64h-64zm64-16h-64v-64h64zm-64 176h64v64h-64zm80-160h224v144h-224zm304-16h-64v-64h64zm0 80h-64v-64h64zm0 80h-64v-64h64zm-64 16h64v64h-64zm64-256h-64v-56h64zm-80 80h-224v-136h224zm-304-136h64v56h-64zm0 392h64v56h-64zm80-80h224v136h-224zm304 136h-64v-56h64zm0 0" fill="url(#a)"/></svg>