<svg height="512pt" viewBox="-31 0 512 512" width="512pt" xmlns="http://www.w3.org/2000/svg"><path d="m411.644531 257.519531c-4.488281 0-8.929687-2.007812-11.882812-5.835937-5.0625-6.554688-3.851563-15.976563 2.707031-21.039063 11.140625-8.601562 17.53125-21.59375 17.53125-35.644531 0-24.8125-20.1875-45-45-45-8.285156 0-15-6.714844-15-15 0-24.8125-20.1875-45-45-45-8.285156 0-15-6.714844-15-15 0-24.8125-20.1875-45-45-45-7.734375 0-15.289062 2.117188-22.453125 6.285156-4.667969 2.714844-10.429687 2.714844-15.09375 0-7.167969-4.171875-14.722656-6.285156-22.453125-6.285156-24.8125 0-45 20.1875-45 45 0 8.285156-6.71875 15-15 15-24.8125 0-45 20.1875-45 45 0 8.28125-6.714844 15-15 15-24.8125 0-45 20.1875-45 45 0 14.050781 6.390625 27.042969 17.53125 35.644531 6.554688 5.0625 7.769531 14.484375 2.707031 21.039063-5.066406 6.558594-14.484375 7.769531-21.042969 2.707031-18.554687-14.324219-29.195312-35.972656-29.195312-59.390625 0-36.664062 26.445312-67.265625 61.261719-73.738281 5.644531-30.359375 29.640625-54.355469 60-60 6.46875-34.816407 37.074219-61.261719 73.738281-61.261719 10.351562 0 20.410156 2.175781 30 6.476562 9.585938-4.300781 19.644531-6.476562 30-6.476562 36.660156 0 67.265625 26.445312 73.738281 61.261719 30.359375 5.644531 54.355469 29.640625 60 60 34.8125 6.472656 61.257813 37.074219 61.257813 73.738281 0 23.417969-10.640625 45.066406-29.195313 59.390625-2.730469 2.109375-5.957031 3.128906-9.15625 3.128906zm0 0" fill="#fedb41"/><path d="m423.484375 233.296875c-10.671875-14.804687-27.261719-23.296875-45.515625-23.296875-19.371094 0-36.613281 9.664062-46.734375 24.96875-13.046875-15.871094-32.242187-24.96875-52.824219-24.96875-21.589844 0-40.863281 10.0625-53.414062 25.738281-12.546875-15.675781-31.820313-25.738281-53.410156-25.738281-20.582032 0-39.777344 9.097656-52.824219 24.96875-10.121094-15.304688-27.359375-24.96875-46.734375-24.96875-18.253906 0-34.839844 8.492188-45.511719 23.296875-10.671875 14.808594-13.484375 33.230469-7.726563 50.507813l71.964844 217.894531c2.03125 6.148437 7.773438 10.296875 14.246094 10.296875h59.921875c.019531 0 .039063.003906.0625.003906.101563 0 .203125 0 .308594-.003906h119.648437c.023438 0 .046875.003906.070313.003906.101562 0 .203125 0 .304687-.003906h59.679688c6.472656 0 12.214844-4.148438 14.242187-10.296875l71.957031-217.855469c5.769532-17.316406 2.960938-35.738281-7.710937-50.546875zm-20.765625 41.097656-68.5625 207.601563h-30.542969l17.652344-81.050782c.234375-1.074218.34375-2.148437.34375-3.207031 0-6.902343-4.792969-13.113281-11.8125-14.640625-8.09375-1.761718-16.082031 3.367188-17.847656 11.464844l-19.035157 87.433594h-32.914062v-62c0-8.28125-6.71875-15-15-15-8.285156 0-15 6.71875-15 15v62h-32.917969l-19.035156-87.433594c-1.765625-8.097656-9.753906-13.230469-17.851563-11.464844-7.019531 1.527344-11.808593 7.738282-11.808593 14.640625 0 1.058594.109375 2.132813.34375 3.207031l17.652343 81.050782h-30.539062l-68.578125-207.640625c-2.6875-8.054688-1.378906-16.628907 3.585937-23.515625 4.964844-6.890625 12.683594-10.839844 21.175782-10.839844 12.328125 0 22.808594 8.40625 25.480468 20.441406l17.308594 77.886719c1.800782 8.085937 9.8125 13.183594 17.898438 11.386719 8.085937-1.796875 13.183594-9.808594 11.386718-17.894532l-10.015624-45.074218c-2.539063-11.433594.207031-23.234375 7.535156-32.371094s18.25-14.375 29.964844-14.375c21.179687 0 38.414062 17.230469 38.414062 38.414062v21.585938c0 8.28125 6.714844 15 15 15 8.28125 0 15-6.71875 15-15v-21.585938c0-21.183593 17.230469-38.414062 38.414062-38.414062 11.710938 0 22.632813 5.238281 29.960938 14.375 7.332031 9.136719 10.078125 20.933594 7.535156 32.371094l-10.015625 45.070312c-1.796875 8.089844 3.300781 16.101563 11.390625 17.898438 8.085938 1.796875 16.097656-3.300782 17.894532-11.390625l17.308593-77.886719c2.671875-12.03125 13.152344-20.4375 25.480469-20.4375 8.492188 0 16.210938 3.949219 21.175781 10.839844 4.964844 6.886718 6.273438 15.460937 3.574219 23.554687zm0 0" fill="#fd3018"/><path d="m195 180c-8.285156 0-15-6.71875-15-15 0-8.273438-6.730469-15-15-15-8.273438 0-15 6.726562-15 15 0 8.28125-6.71875 15-15 15-8.285156 0-15-6.71875-15-15 0-24.8125 20.1875-45 45-45s45 20.1875 45 45c0 8.28125-6.71875 15-15 15zm0 0" fill="#fea832"/><path d="m315 180c-8.285156 0-15-6.71875-15-15 0-8.273438-6.730469-15-15-15-8.273438 0-15 6.726562-15 15 0 8.28125-6.71875 15-15 15-8.285156 0-15-6.71875-15-15 0-24.8125 20.183594-45 45-45 24.8125 0 45 20.1875 45 45 0 8.28125-6.71875 15-15 15zm0 0" fill="#fea832"/><path d="m225 434.996094c-67.289062 0-120-32.941406-120-75 0-42.054688 52.710938-74.996094 120-74.996094s119.996094 32.941406 119.996094 74.996094c0 42.058594-52.707032 75-119.996094 75zm0-119.996094c-53.039062 0-90 23.714844-90 44.996094 0 21.285156 36.960938 45 90 45 53.035156 0 90-23.714844 90-45 0-21.28125-36.964844-44.996094-90-44.996094zm0 0" fill="#fedb41"/></svg>